<?xml version="1.0" encoding="UTF-8"?>
<!DOCTYPE svg PUBLIC "-//W3C//DTD SVG 1.1//EN" "http://www.w3.org/Graphics/SVG/1.1/DTD/svg11.dtd">
<!-- Creator: CorelDRAW -->
<svg xmlns="http://www.w3.org/2000/svg" xml:space="preserve" width="825.227mm" height="544.702mm" version="1.1" style="shape-rendering:geometricPrecision; text-rendering:geometricPrecision; image-rendering:optimizeQuality; fill-rule:evenodd; clip-rule:evenodd"
viewBox="0 0 312037.54 205964.51"
 xmlns:xlink="http://www.w3.org/1999/xlink"
 xmlns:xodm="http://www.corel.com/coreldraw/odm/2003">
 <defs>
  <style type="text/css">
   <![CDATA[
    .fil1 {fill:white}
    .fil0 {fill:white;fill-rule:nonzero}
   ]]>
  </style>
 </defs>
 <g id="Layer_x0020_1">
  <metadata id="CorelCorpID_0Corel-Layer"/>
  <g id="_105553176091168">
   <path class="fil0" d="M126001.37 93067l6224.78 41818.87 -11135.84 0 -537.8 -7520.87 -3905.94 0 -643.68 7520.87 -11259.26 0 5528.27 -41818.87 15729.47 0zm-5757.49 26891.74c-555.46,-4734.71 -1102.12,-10589.19 -1657.58,-17545.78 -1102.15,7997 -1789.85,13842.67 -2063.19,17545.78l3720.77 0zm24713.94 -26891.74l0 41818.87 -10871.31 0 0 -41818.87 10871.31 0zm4373.22 0l7697.23 0c5131.47,0 8605.36,193.98 10421.64,590.74 1816.31,396.73 3297.57,1410.7 4443.78,3033.04 1146.2,1631.15 1719.29,4223.33 1719.29,7794.18 0,3253.48 -405.57,5440.1 -1216.72,6559.83 -802.34,1119.74 -2398.25,1789.85 -4778.83,2010.25 2151.37,537.84 3606.16,1252.04 4346.79,2151.37 731.82,890.48 1199.1,1710.48 1375.46,2459.92 185.13,749.44 273.31,2812.63 273.31,6189.5l0 11030.04 -10104.24 0 0 -13895.53c0,-2239.51 -176.32,-3623.78 -528.99,-4161.62 -352.68,-529.03 -1278.47,-802.34 -2777.35,-802.34l0 18859.5 -10871.34 0 0 -41818.87zm10871.34 7150.57l0 9301.91c1225.57,0 2080.81,-167.55 2574.53,-502.6 493.79,-335.02 731.82,-1428.32 731.82,-3271.11l0 -2292.41c0,-1331.37 -229.22,-2195.42 -705.35,-2609.81 -476.09,-414.39 -1340.18,-625.98 -2601,-625.98zm17616.27 -7150.57l10950.67 0c2962.52,0 5246.12,229.22 6833.18,696.54 1595.87,467.28 2794.97,1137.39 3588.5,2010.25 802.34,881.71 1348.99,1948.54 1631.11,3191.78 282.16,1252 423.23,3182.89 423.23,5801.54l0 3641.4c0,2671.55 -273.35,4620.1 -820,5836.82 -555.46,1225.57 -1569.4,2160.18 -3041.81,2821.44 -1472.45,652.45 -3394.56,978.7 -5766.3,978.7l-2927.24 0 0 16840.39 -10871.34 0 0 -41818.87zm10871.34 7150.57l0 10642.09c317.4,17.62 581.89,26.43 802.34,26.43 1005.13,0 1692.86,-246.88 2080.81,-731.82 387.95,-493.75 581.93,-1516.5 581.93,-3059.47l0 -3438.65c0,-1428.32 -220.45,-2362.93 -670.11,-2786.12 -449.66,-432.04 -1375.46,-652.45 -2794.97,-652.45zm40531.59 17334.15c0,4205.67 -96.99,7177 -290.97,8922.76 -202.79,1754.57 -819.96,3350.44 -1860.37,4796.42 -1040.41,1446.02 -2451.11,2556.94 -4223.33,3332.82 -1772.19,775.91 -3844.19,1163.83 -6198.35,1163.83 -2239.51,0 -4249.76,-370.3 -6030.8,-1102.12 -1789.81,-731.78 -3218.17,-1825.09 -4302.66,-3288.69 -1084.49,-1463.64 -1728.14,-3059.51 -1939.73,-4778.83 -202.79,-1728.1 -308.59,-4743.52 -308.59,-9046.18l0 -7150.57c0,-4205.67 96.99,-7177 299.78,-8931.61 193.98,-1745.72 811.15,-3341.59 1860.4,-4787.57 1040.37,-1446.02 2442.26,-2556.94 4223.3,-3332.85 1772.19,-775.87 3835.38,-1163.83 6198.31,-1163.83 2239.55,0 4249.8,370.33 6030.8,1102.12 1781.07,731.82 3218.21,1825.12 4302.7,3288.73 1084.49,1463.64 1728.14,3059.51 1930.92,4778.8 211.6,1728.14 308.59,4734.74 308.59,9046.22l0 7150.57zm-10871.31 -13736.84c0,-1948.54 -105.8,-3191.74 -326.24,-3738.39 -211.6,-537.84 -652.45,-811.15 -1322.56,-811.15 -573.08,0 -1005.13,220.41 -1304.87,661.26 -308.62,432.04 -458.51,1728.1 -458.51,3888.28l0 19520.76c0,2433.49 105.8,3932.37 299.78,4496.64 193.98,573.12 661.26,855.24 1384.27,855.24 740.63,0 1207.91,-326.21 1419.55,-978.66 202.79,-661.26 308.59,-2213.08 308.59,-4681.85l0 -19212.13zm14927.09 -10747.89l7697.23 0c5131.47,0 8605.36,193.98 10421.64,590.74 1816.31,396.73 3297.57,1410.7 4443.78,3033.04 1146.2,1631.15 1719.29,4223.33 1719.29,7794.18 0,3253.48 -405.57,5440.1 -1216.72,6559.83 -802.34,1119.74 -2398.21,1789.85 -4778.8,2010.25 2151.33,537.84 3606.12,1252.04 4346.75,2151.37 731.82,890.48 1199.1,1710.48 1375.46,2459.92 185.13,749.44 273.31,2812.63 273.31,6189.5l0 11030.04 -10104.24 0 0 -13895.53c0,-2239.51 -176.32,-3623.78 -528.99,-4161.62 -352.68,-529.03 -1278.47,-802.34 -2777.35,-802.34l0 18859.5 -10871.34 0 0 -41818.87zm10871.34 7150.57l0 9301.91c1225.57,0 2080.81,-167.55 2574.53,-502.6 493.79,-335.02 731.82,-1428.32 731.82,-3271.11l0 -2292.41c0,-1331.37 -229.22,-2195.42 -705.35,-2609.81 -476.09,-414.39 -1340.18,-625.98 -2601,-625.98zm39517.65 -7150.57l0 8367.3 -6454.03 0 0 33451.57 -10871.34 0 0 -33451.57 -6436.37 0 0 -8367.3 23761.75 0zm25525.13 12652.34l-10095.47 0 0 -3094.75c0,-1445.98 -132.23,-2371.78 -387.92,-2768.54 -255.69,-396.73 -687.73,-590.7 -1296.09,-590.7 -652.45,0 -1146.2,264.5 -1481.26,802.34 -335.02,529.03 -502.56,1340.14 -502.56,2424.64 0,1393.08 185.17,2451.11 564.31,3156.46 361.49,705.39 1393.04,1551.82 3077.09,2556.94 4840.54,2874.34 7882.39,5228.46 9143.21,7071.21 1260.81,1842.75 1886.83,4814.07 1886.83,8913.95 0,2980.14 -352.68,5175.56 -1049.22,6586.3 -696.54,1410.7 -2045.53,2601 -4038.17,3553.19 -2001.48,952.27 -4320.36,1437.17 -6974.22,1437.17 -2909.62,0 -5396.01,-555.46 -7450.39,-1657.58 -2063.15,-1102.08 -3412.15,-2504.01 -4046.94,-4205.67 -634.83,-1710.48 -952.23,-4126.34 -952.23,-7265.18l0 -2733.26 10095.4 0 0 5087.38c0,1569.44 141.08,2574.56 423.23,3024.23 290.97,440.85 793.53,670.07 1516.5,670.07 723.01,0 1260.85,-282.12 1613.49,-855.24 352.68,-564.27 529.03,-1410.7 529.03,-2530.48 0,-2459.92 -335.05,-4073.41 -1005.13,-4831.66 -687.73,-758.29 -2389.4,-2019.1 -5087.38,-3791.33 -2706.83,-1798.66 -4496.68,-3094.75 -5378.39,-3905.94 -872.86,-811.15 -1604.64,-1930.89 -2177.76,-3359.25 -581.89,-1428.32 -864.05,-3253.45 -864.05,-5475.34 0,-3200.55 405.57,-5545.86 1225.57,-7027.12 811.15,-1481.26 2133.67,-2636.27 3958.76,-3473.89 1825.12,-828.77 4029.39,-1252 6612.77,-1252 2830.21,0 5237.27,458.47 7221.06,1366.65 1992.67,916.95 3306.38,2063.15 3958.84,3456.23 643.64,1384.27 961.08,3738.39 961.08,7062.4l0 1648.77z"/>
   <path class="fil0" d="M107775.95 73087.01l2565.72 0c1710.48,0 2868.44,64.66 3473.86,196.93 605.41,132.27 1099.17,470.23 1481.22,1011.03 382.06,543.7 573.08,1407.75 573.08,2598.05 0,1084.46 -135.18,1813.33 -405.57,2186.57 -267.45,373.25 -799.39,596.6 -1592.88,670.07 717.07,179.31 1202.02,417.33 1448.89,717.15 243.93,296.79 399.71,570.1 458.47,819.92 61.71,249.83 91.09,937.56 91.09,2063.15l0 3676.64 -3368.02 0 0 -4631.78c0,-746.53 -58.8,-1207.95 -176.36,-1387.22 -117.56,-176.32 -426.14,-267.45 -925.76,-267.45l0 6286.45 -3623.74 0 0 -13939.51zm3623.74 2383.5l0 3100.65c408.52,0 693.59,-55.85 858.19,-167.55 164.56,-111.66 243.93,-476.09 243.93,-1090.36l0 -764.11c0,-443.8 -76.42,-731.82 -235.12,-869.95 -158.7,-138.13 -446.71,-208.69 -867,-208.69zm5872.06 -2383.5l6045.43 0 0 2789.11 -2421.69 0 0 2642.14 2265.94 0 0 2653.86 -2265.94 0 0 3065.33 2662.71 0 0 2789.07 -6286.45 0 0 -13939.51zm15644.09 5131.43l-3623.74 0 0 -1266.67c0,-796.48 -35.28,-1296.09 -102.85,-1498.88 -70.56,-199.84 -232.21,-299.78 -490.84,-299.78 -226.31,0 -376.16,85.23 -458.47,258.64 -79.37,170.46 -120.47,614.26 -120.47,1325.47l0 6689.07c0,626.02 41.1,1037.46 120.47,1237.29 82.32,196.93 240.98,296.83 481.99,296.83 264.5,0 443.8,-111.66 540.79,-335.02 94.04,-226.31 141.04,-661.26 141.04,-1310.76l0 -1651.72 -731.78 0 0 -2118.96 4243.87 0 0 7482.57 -2280.65 0 -335.05 -999.23c-246.84,432.01 -558.37,755.3 -934.57,969.85 -376.19,214.55 -819.96,323.3 -1331.37,323.3 -608.36,0 -1178.5,-149.89 -1710.48,-443.8 -528.99,-296.83 -931.66,-661.26 -1207.88,-1099.17 -276.26,-434.96 -446.71,-893.43 -517.27,-1372.47 -67.61,-479.08 -102.85,-1199.1 -102.85,-2157.23l0 -4140.98c0,-1331.33 70.52,-2298.27 214.55,-2900.77 143.99,-605.41 555.43,-1157.93 1237.26,-1657.58 678.92,-502.53 1557.68,-755.3 2639.22,-755.3 1060.94,0 1942.65,217.5 2642.1,655.4 699.49,434.96 1157.96,955.14 1369.6,1554.69 211.6,599.55 317.4,1469.5 317.4,2612.76l0 602.46zm5028.55 -5131.43l0 13939.51 -3623.71 0 0 -13939.51 3623.71 0zm9739.73 8161.52c0,1401.85 -32.33,2392.31 -96.99,2974.24 -67.61,584.84 -273.31,1116.79 -620.08,1598.78 -346.81,481.99 -817.05,852.29 -1407.79,1110.93 -590.74,258.64 -1281.38,387.95 -2066.06,387.95 -746.53,0 -1416.6,-123.46 -2010.29,-367.38 -596.6,-243.93 -1072.7,-608.36 -1434.18,-1096.22 -361.52,-487.89 -576.07,-1019.84 -646.59,-1592.92 -67.61,-576.03 -102.85,-1581.16 -102.85,-3015.38l0 -2383.5c0,-1401.89 32.33,-2392.31 99.9,-2977.19 64.66,-581.89 270.4,-1113.84 620.12,-1595.83 346.81,-481.99 814.1,-852.29 1407.79,-1110.93 590.7,-258.64 1278.43,-387.95 2066.1,-387.95 746.45,0 1416.56,123.42 2010.22,367.35 593.69,243.97 1072.74,608.4 1434.22,1096.25 361.49,487.85 576.03,1019.84 643.64,1592.92 70.52,576.03 102.85,1578.25 102.85,3015.38l0 2383.5zm-3623.74 -4578.88c0,-649.54 -35.24,-1063.93 -108.71,-1246.14 -70.56,-179.27 -217.5,-270.4 -440.85,-270.4 -191.03,0 -335.05,73.47 -434.96,220.45 -102.89,143.99 -152.84,576.03 -152.84,1296.09l0 6506.82c0,811.15 35.28,1310.8 99.9,1498.88 64.66,191.07 220.45,285.07 461.42,285.07 246.88,0 402.66,-108.71 473.18,-326.21 67.61,-220.41 102.85,-737.68 102.85,-1560.59l0 -6403.97zm13069.56 -3582.64l0 13939.51 -3176.99 0 -1886.83 -6336.4 0 6336.4 -3030.05 0 0 -13939.51 3030.05 0 2033.77 6277.64 0 -6277.64 3030.05 0zm7714.81 0l2074.91 13939.51 -3711.92 0 -179.27 -2506.92 -1301.99 0 -214.55 2506.92 -3753.02 0 1842.71 -13939.51 5243.13 0zm-1919.13 8963.86c-185.17,-1578.21 -367.38,-3529.7 -552.55,-5848.54 -367.35,2665.65 -596.6,4614.16 -687.69,5848.54l1240.24 0zm8237.87 -8963.86l0 11150.44 2204.23 0 0 2789.07 -5827.94 0 0 -13939.51 3623.71 0z"/>
   <path class="fil0" d="M228128.84 148533.92l-3632.86 0 0 -2421.54c0,-705.35 -38.34,-1142.99 -114.42,-1319.61 -76.65,-173.29 -247.14,-261.62 -508.76,-261.62 -293.8,0 -481.5,106.1 -560.95,317.7 -79.41,214.4 -120.51,673.13 -120.51,1378.52l0 6471.5c0,678.69 41.1,1119.7 120.51,1328.54 79.44,205.47 258.26,308.25 534.86,308.25 267.14,0 443.77,-102.77 525.97,-311.61 82.2,-205.47 123.31,-693.67 123.31,-1460.69l0 -1754.49 3632.86 0 0 543.74c0,1446.25 -102.74,2471.53 -306.02,3074.1 -202.71,605.41 -655.36,1134.71 -1351.87,1590.12 -699.23,455.45 -1557.34,682.02 -2580.39,682.02 -1060.79,0 -1936.67,-191.03 -2627.58,-575.92 -687.58,-385.46 -1145.79,-916.99 -1369.07,-1599.01 -223.81,-682.02 -335.47,-1704.54 -335.47,-3071.38l0 -4073.29c0,-1005.28 35.54,-1757.82 102.77,-2259.93 70.52,-502.64 273.8,-987.47 617.59,-1452.37 341.03,-464.3 814.21,-831.42 1419.63,-1099.13 605.38,-267.14 1301.84,-399.34 2089.4,-399.34 1066.91,0 1948.36,205.51 2644.82,619.82 693.7,411.59 1149.68,925.87 1369.6,1542.93 217.72,617.59 326.58,1575.64 326.58,2877.52l0 1325.17zm9569.54 2092.76c0,1401.82 -32.78,2392.65 -99.98,2974.17 -64.96,584.84 -270.47,1116.9 -617.59,1599.01 -346.59,482.07 -817.01,852.52 -1407.37,1110.77 -590.97,258.83 -1278.55,388.22 -2063.34,388.22 -746.45,0 -1413.46,-123.27 -2007.19,-367.65 -593.73,-243.81 -1073.04,-608.17 -1431.27,-1096.37 -361.56,-487.63 -576.52,-1019.72 -647.04,-1592.88 -67.19,-575.96 -102.74,-1581.24 -102.74,-3015.27l0 -2386.56c0,-1401.82 32.22,-2392.12 99.98,-2974.17 64.96,-584.84 270.47,-1116.9 617.02,-1599.01 347.12,-481.5 817.54,-851.99 1407.94,-1110.77 590.97,-258.26 1278.55,-387.69 2063.3,-387.69 746.45,0 1413.5,123.31 2007.23,367.12 593.73,243.81 1073.04,608.74 1431.27,1096.37 361.56,487.63 575.96,1019.72 646.48,1592.88 67.76,575.96 103.3,1581.24 103.3,3015.27l0 2386.56zm-3632.86 -4582.06c0,-646.48 -35.01,-1060.82 -105.53,-1242.97 -70.56,-179.42 -214.93,-270.51 -432.12,-270.51 -185.51,0 -326.55,73.89 -426.52,220.52 -96.65,143.84 -146.64,575.96 -146.64,1292.95l0 6509.84c0,808.65 32.22,1307.97 96.65,1496.23 64.96,191.07 214.93,284.95 449.85,284.95 241.05,0 396.58,-108.86 464.34,-326.02 67.76,-217.72 99.98,-737.6 99.98,-1557.91l0 -6407.11zm16175.99 -3593.98l0 13948.32 -3174.08 0 -8.89 -9416.82 -1260.78 9416.82 -2221.59 0 -1331.3 -9205.22 -8.89 9205.22 -3174.12 0 0 -13948.32 4687.55 0c132.19,843.1 276.07,1836.7 432.12,2971.41l514.29 3541.2 825.9 -6512.6 4719.77 0zm1460.73 0l3652.86 0c987.51,0 1746.17,76.08 2277.7,232.17 529.3,155.48 929.16,378.77 1196.31,669.81 267.71,293.8 446.56,649.8 543.74,1064.15 93.89,417.11 141.08,1060.79 141.08,1933.87l0 1213.55c0,887.53 -91.09,1537.37 -276.03,1942.8 -182.18,408.79 -520.41,723.12 -1008.04,940.32 -490.99,217.69 -1131.91,326.55 -1922.26,326.55l-973.06 0 0 5625.11 -3632.29 0 0 -13948.32zm3632.29 2380.44l0 3553.45c102.77,5.56 191.07,8.32 264.95,8.32 331.58,0 560.95,-82.17 690.34,-246.57 126.63,-161.61 191.07,-502.64 191.07,-1019.72l0 -1149.12c0,-476.55 -73.32,-787.55 -223.28,-931.96 -147.17,-143.84 -455.41,-214.4 -923.07,-214.4zm11036.36 -2380.44l2074.99 13948.32 -3706.17 0 -197.19 -2504.31 -1307.4 0 -197.15 2504.31 -3753.4 0 1840.02 -13948.32 5246.31 0zm-1924.99 8975.24c-173.86,-1580.67 -356.04,-3538.44 -549.87,-5875.01 -358.23,2680.36 -584.84,4638.17 -682.02,5875.01l1231.89 0zm12716.96 -8975.24l0 13948.32 -3174.08 0 -1886.72 -6342.11 0 6342.11 -3033.04 0 0 -13948.32 3033.04 0 2027.76 6280.47 0 -6280.47 3033.04 0zm9178.56 0l-2644.82 8899.17 0 5049.15 -3350.74 0 0 -5049.15 -2557.06 -8899.17 3330.17 0c514.32,2730.35 810.89,4564.29 884.77,5504.57 208.27,-1487.35 543.74,-3321.28 1010.84,-5504.57l3326.84 0zm7362.36 0l0 11161.85 2186.61 0 0 2786.47 -5818.9 0 0 -13948.32 3632.29 0zm9110.8 0l0 2785.9 -2133.3 0 0 11162.42 -3632.89 0 0 -11162.42 -2151.03 0 0 -2785.9 7917.22 0zm829.19 0l2712.58 0c1748.97,0 2933.06,79.41 3550.12,241.05 617.59,161.61 1087.48,425.99 1407.94,793.11 320.46,367.65 523.17,775.87 602.61,1225.76 79.41,452.65 120.51,1337.38 120.51,2659.79l0 4884.75c0,1251.89 -58.87,2089.43 -176.62,2509.87 -117.18,423.2 -323.22,755.34 -614.26,993.03 -293.8,238.29 -655.36,402.66 -1087.48,499.88 -428.75,93.85 -1078.56,141.08 -1945.56,141.08l-4569.85 0 0 -13948.32zm3632.33 2380.44l0 9187.45c514.32,0 831.98,-106.1 949.16,-314.37 120.55,-211.6 179.42,-782 179.42,-1713.96l0 -5425.16c0,-632.03 -20.57,-1037.49 -58.87,-1216.88 -41.1,-178.85 -128.86,-308.25 -273.27,-390.45 -141.08,-85.53 -405.42,-126.63 -796.44,-126.63z"/>
   <path class="fil1" d="M49844.91 199380.78l30095.46 -24452.01 0 -174928.77 -30095.46 24452.58 0 68858.49c4201.59,1756.72 2982.52,10954.72 3481.27,15228.49l7507.9 5852.25 104.4 -1977.77c-54.41,-2116.62 1196.34,-2009.42 2416.55,-422.67l210.5 4529.84 13089.11 10203.8 275.46 3857.27 -19930.53 -7990.54c-2696.47,-1226.33 -3762.25,-303.82 -3765.61,2020.54l-918.05 13225.73 6520.92 5510.69 1010.27 4041.08 -10002.19 -2465.4 0 54456.39z"/>
   <path class="fil1" d="M11285.73 80880.69l0 118970.51 30094.9 -24452.58 0 -118500.13 -30094.9 23982.2zm19526.17 13296.89c-471.14,-298.94 -1347.97,-1071.64 -1685.94,-1486.67 -1071.45,-1315.72 -482.71,-2825.83 -2044.28,-4486.28 -651.81,-692.99 -1423.48,-408.3 -1327.4,-1879.99 216.06,-3311.56 1818.47,-2852.18 1899.99,-4514 60.39,-1229.88 -1363.21,-987.17 -1911.56,-488.42 -316.64,287.98 -388.03,495.98 -902.05,694.16 -340.39,131.17 -321.18,63.98 -533.57,299.78 -1152.07,1279.04 -1715.7,3901.29 -889.27,5677.37 177.91,382.32 402.93,623.64 596.53,996.81 232.81,448.68 228.88,773.49 416.92,1255.56 608.02,1557.79 1250.6,2421.69 2009.91,4447.48 157.45,420.06 345.08,696.96 578.72,1016.43 1981.44,2709.18 2944.94,1165.38 3792.01,-1532.23zm-11350.05 -4063.61c537.09,22.2 761.84,-455.15 1038.06,-970.49 184.49,-344.17 621.52,-1092.32 475.45,-1508.9 -888.25,-166.53 -1975.92,1493.47 -1513.51,2479.39zm6332.16 83534.59c-301.63,1509.17 1011.25,1532.42 1704.69,814.36 1047.93,-1085.33 -1060.94,-1202.7 -1704.69,-814.36zm-2714.02 -94576.31c-2066.06,619.52 590.89,2228.28 1039.76,2212.74 251.15,-8.62 529.71,-303.07 618.27,-517.69 132.15,-320.27 45.68,-698.66 -114.31,-966.63 -239.2,-400.7 -849.64,-936.57 -1543.73,-728.42zm8344.35 38226.74c201.65,-1027.21 -59.25,-1990.82 -1283.2,-1726.85 -842.5,181.69 -878.19,1228.45 -908.86,2180.64 -116.01,3607.11 1868.31,1194.64 2192.06,-453.79zm-5896.34 9875.22c-1488.82,-2640.36 -3586.46,-1901.54 -3079.7,-76.61 201.58,725.92 733.9,1856.28 1486.29,1724.92 546.46,-95.36 1394.67,-1259.83 1593.41,-1648.31zm3468.41 -27118.8c178.63,453.48 1464.47,1345.36 2099.98,1609.52 1105.1,459.27 1980.38,-495.61 1452.75,-1606.27 -312.25,-657.37 -1393.01,-1678.41 -1870.12,-1862.07 -678.01,-260.98 -1931.42,1227.46 -1682.61,1858.82zm-5865.11 33811.39c722.97,-281.17 1547.66,-775.11 1805.54,-1394.97 219.08,-526.65 331.69,-2202.64 278.68,-2830.93 -460.29,-268.01 -1135.69,-431.02 -1635.69,-195.07 -2039.71,962.97 -998.25,3763.23 -448.53,4420.98zm8429.31 6694.97c-327.3,18.34 -1510.98,83.72 -1736,219.54 -165.28,99.71 -195.6,307.57 -461.08,527.48 -622.92,516.18 -1334.32,739.72 -1534.57,1426.02 -157.07,537.96 -2.5,1148.32 313.65,1459.67 831.83,819.01 1987.04,20.42 2937.56,-253.57 425.77,-122.74 182.63,100.39 302.69,-234.51 19.21,-53.58 44.58,-343.83 50.86,-421.87 51.16,-638.73 171.21,-2224.27 126.9,-2722.75zm820.64 -9346.3c-361.49,-1055.91 770.09,-2131.93 427.43,-2853.54 -207.06,-436.32 -1830.65,-908.78 -2474.29,-1031.44 -818.52,-155.94 -845.79,-158.51 -976.69,600.5 -151.89,880.72 -377.18,3207.16 -278.87,4075 210.77,1860.9 2288.86,-999.83 3302.41,-790.5zm-4190.1 -7839.48c113.21,547.11 815.65,1207.8 1157.93,1529.62 719.49,676.31 1138.38,770.46 1923.44,605.83 652.45,-136.92 1658.37,-236.06 2194.55,-460.1 980.89,-409.85 1057.42,-1159.29 432.61,-1423.94 -915.51,-387.8 -1759.86,453.52 -2225.94,-364.55 -325.15,-570.78 -498.29,-1265.24 -898.46,-1753.51 -1068.39,-1303.16 -2782.61,908.06 -2584.13,1866.64zm5271.23 -11470.37c233.91,-396.2 -94,-773.19 -280.26,-1013.94 -461.61,-596.6 -1513.66,-1671 -2165.59,-2086.6 -1682.08,-1072.32 -2622.51,3932.71 -1804.18,5603.56 248.35,506.84 1052.85,1140.15 1807.96,676.58 504.83,-309.91 743.43,-1114.4 1146.55,-1664.12 500.98,-683.5 1109.64,-1200.47 1295.53,-1515.48zm-4065.92 25295.68c622.13,-1458.95 -3108.1,-2972.35 -5370.56,-1913.08 -728.53,340.99 -673.32,1157.36 -551.23,2026.93 270.13,1924.5 842.8,2854.98 2746.42,2138.1 1064.87,-401 2788.66,-1345.06 3175.36,-2251.95zm-8420.69 -16559.9c36.79,683.31 112.72,2476.44 529.64,2839.4 296.6,258.18 1021.27,225.44 1474.79,193.15 605.79,-43.14 792.62,-197.64 1014.13,-651.28 741.46,-1518.32 538.14,-4193.23 264.95,-5948.97 -141.61,-909.76 -334.56,-1951.68 -864.28,-2545.64 -655.67,-735.07 -1603.92,-1178.91 -2005.07,-107.58 -502.6,1342.56 -498.59,4653.86 -414.16,6220.92zm4098.06 -20321.4c-35.88,-438.93 231.22,-855.84 272.32,-1400.8 82.43,-1093.27 -192.58,-3869.9 -666.18,-4591.25 -650.11,-990.08 -1501.56,417.49 -1760.13,1033.75 -348.86,831.27 -624.92,1837.04 -617.02,2870.52 10.32,1340.86 515.72,1588.57 876.19,2617.48 215.61,615.4 -487.7,742.44 -791.3,2489.9 -178.81,1028.72 746.79,1900.79 1780.85,1624 897.82,-240.26 1644.65,-1291.06 2402.59,-1084.27 -23.67,-1099.13 903.87,-1431.39 219.58,-2243.33 -663.15,-786.95 -829.41,-872.44 -1716.91,-1316.02zm4825.15 55559.22c-290.7,-521.62 -500.29,-755.64 -1296.47,-768.99 -564.16,-9.42 -1315.38,118.43 -1496.8,580.68 -274.06,698.36 583.03,1028.8 157.3,1669.94 -85.42,128.64 -370.71,407.77 -509.97,552.06 -262.15,271.68 -965.05,751.29 -1583.84,1458.99 -342.54,391.85 -621.41,729.7 -597.09,1453.66 60.76,1807.5 1269.81,3410.78 2921.57,3136.46 625.45,-103.91 1190.33,-122.1 1835.49,-209.86 -49.69,-336.45 -254.44,-113.51 -297.13,-444.03 892.71,-193.18 879.63,-76.72 1588.68,-540.11 1814.27,-1185.95 1521.72,-2266.24 403,-3912.06 -428.04,-629.76 -557.69,-320.69 -644.02,-1383.4 -47.27,-581.21 -235.61,-1153.5 -480.71,-1593.34z"/>
   <polygon class="fil1" points="86523.54,203143.07 91696.53,205964.51 91696.53,32446.44 86523.54,29625.04 "/>
   <polygon class="fil1" points="-0,126493.99 5172.42,128845.01 5172.42,63952.08 -0,61130.64 "/>
  </g>
 </g>
</svg>
